<svg xmlns="http://www.w3.org/2000/svg" xmlns:xlink="http://www.w3.org/1999/xlink" viewBox="0,0,256,256" width="50px" height="50px" fill-rule="nonzero"><g fill="#ffffff" fill-rule="nonzero" stroke="none" stroke-width="1" stroke-linecap="butt" stroke-linejoin="miter" stroke-miterlimit="10" stroke-dasharray="" stroke-dashoffset="0" font-family="none" font-weight="none" font-size="none" text-anchor="none" style="mix-blend-mode: normal"><g transform="scale(5.12,5.12)"><path d="M13,2c-0.553,0 -1,0.448 -1,1v44c0,0.358 0.19095,0.68919 0.50195,0.86719c0.311,0.178 0.69295,0.17609 1.00195,-0.00391l11.49609,-6.70508l11.49609,6.70508c0.155,0.091 0.32991,0.13672 0.50391,0.13672c0.172,0 0.34405,-0.04381 0.49805,-0.13281c0.311,-0.178 0.50195,-0.50919 0.50195,-0.86719v-11.17969c-0.689,-0.116 -1.356,-0.29058 -2,-0.51758v9.95703l-10.49609,-6.12305c-0.155,-0.091 -0.32991,-0.13672 -0.50391,-0.13672c-0.174,0 -0.34891,0.04572 -0.50391,0.13672l-10.49609,6.12305v-41.25977h22v8.69727c0.644,-0.228 1.311,-0.40158 2,-0.51758v-9.17969c0,-0.552 -0.447,-1 -1,-1zM40.01172,13.98828c-5.5,0 -10,4.5 -10,10c0,5.5 4.5,10 10,10c5.5,0 10,-4.5 10,-10c0,-5.5 -4.5,-10 -10,-10zM40.01172,15.98828c4.4,0 8,3.6 8,8c0,4.4 -3.6,8 -8,8c-4.4,0 -8,-3.6 -8,-8c0,-4.4 3.6,-8 8,-8zM40.01172,18.08789c-0.6,0 -1,0.4 -1,1v3.90039h-3.90039c-0.6,0 -1,0.4 -1,1c0,0.6 0.4,1 1,1h3.90039v3.90039c0,0.6 0.4,1 1,1c0.6,0 1,-0.4 1,-1v-3.90039h3.90039c0.6,0 1,-0.4 1,-1c0,-0.6 -0.4,-1 -1,-1h-3.90039v-3.90039c0,-0.6 -0.4,-1 -1,-1z"></path></g></g></svg>